<svg version="1" xmlns="http://www.w3.org/2000/svg" width="1912" height="1912" viewBox="0 0 1434.000000 1434.000000"><path d="M321.4 19.9c-11.6 2.8-21.6 10-28.8 20.4-3.7 5.4-8.2 16.2-9.3 22.5-.4 2-.6 101.1-.6 220.2.1 119.1.2 410.4.3 647.5.2 381.9.4 431.6 1.7 436.4 3.8 13.4 16.5 27.9 33.8 38.4 5.9 3.6 18.9 7.8 28.5 9.2 2.5.3 6.1.9 8 1.3 4.1.7 558.6.6 564.5-.2 2.2-.3 6.9-.8 10.5-1.1 3.6-.3 7.2-.8 8-1 .8-.2 2.8-.6 4.4-.9 7.1-1.2 14.6-2.9 21.1-4.8 3.9-1 7.9-2.1 8.9-2.3 4.2-.9 18.5-5.9 25.1-8.7 10.4-4.5 30.3-14.6 36-18.3 7.2-4.8 16.3-11.2 19.9-14 1.7-1.3 5.7-4.4 8.8-6.8 3.2-2.4 5.5-4.7 5.1-5.1-.3-.3-.1-.6.4-.6 2.2 0 20.4-19.2 30.8-32.4 1.7-2.1 4-5 5.3-6.5 2.2-2.4 9.5-14.3 15.6-25.4 1.4-2.6 3.7-6.6 5-9 5.2-9.2 17.2-41.6 19-51 .2-1.2 1.1-4.9 1.9-8.2.9-3.3 1.9-8.3 2.2-11 .4-2.8.8-6.1 1.1-7.5.8-5.2 1.7-13.6 1.6-15.3 0-1.1.4-1.5 1.1-1.1.8.5.8.3 0-.7-1.4-1.4-1.8-3.3-.5-2.6.6.5.6-308.1 0-874.3l-.3-209.5-2.7-7.9c-12.8-36.5-20.2-50.3-32.1-59.8-5.7-4.5-14.7-8.9-21.9-10.7-3.6-.8-100.5-1.1-385-1-357.3.1-380.7.2-387.4 1.8z"/></svg>